Coordinates
version=1
nRows=21
nColumns=12
inDegrees=yes

Units are S.I. units (second, meters, Newtons, ...)
Angles are in degrees

endheader
time	SC_y	SC_z	SC_x	AC_y	AC_z	AC_x	GH_y	GH_z	GH_yy	EL_x	PS_y
       0.0              -18.97          9.429          37.66          58.77         -7.997         -6.802          36.84         -6.559          52.26          69.56          46.19
    0.0462              -18.97          9.429          37.66          58.77         -7.995           -6.8          36.82         -6.556          52.25          69.57           46.2
    0.0924              -18.97          9.429          37.67          58.77         -7.992         -6.797           36.8         -6.553          52.25          69.57          46.21
    0.1386              -18.97           9.43          37.67          58.77          -7.99         -6.795          36.78          -6.55          52.24          69.59          46.21
    0.1848              -18.97           9.43          37.67          58.76         -7.987         -6.792          36.76         -6.547          52.23           69.6          46.22
     0.231              -18.97          9.431          37.68          58.76         -7.984         -6.788          36.74         -6.543          52.22          69.61          46.23
    0.2772              -18.97          9.431          37.68          58.76         -7.981         -6.785          36.71         -6.539          52.21          69.62          46.24
    0.3234              -18.97          9.432          37.69          58.76         -7.978         -6.781          36.68         -6.535           52.2          69.64          46.25
    0.3696              -18.97          9.433          37.69          58.76         -7.975         -6.778          36.66          -6.53          52.19          69.65          46.26
    0.4158              -18.97          9.433          37.69          58.75         -7.971         -6.773          36.62         -6.526          52.18          69.67          46.27
     0.462              -18.97          9.434           37.7          58.75         -7.967         -6.769          36.59          -6.52          52.17          69.68          46.28
    0.5082              -18.97          9.435          37.71          58.75         -7.963         -6.764          36.56         -6.515          52.15           69.7          46.29
    0.5544              -18.97          9.435          37.71          58.75         -7.958         -6.759          36.52         -6.509          52.14          69.72           46.3
    0.6006              -18.97          9.436          37.72          58.74         -7.953         -6.753          36.48         -6.502          52.12          69.74          46.32
    0.6468              -18.97          9.437          37.73          58.74         -7.948         -6.747          36.43         -6.495          52.11          69.76          46.33
     0.693              -18.97          9.438          37.73          58.74         -7.942         -6.741          36.38         -6.488          52.09          69.79          46.35
    0.7392              -18.97          9.439          37.74          58.73         -7.936         -6.734          36.33         -6.479          52.07          69.82          46.37
    0.7854              -18.97          9.441          37.75          58.73         -7.929         -6.726          36.27          -6.47          52.05          69.85          46.39
    0.8316              -18.97          9.442          37.76          58.72         -7.921         -6.718          36.21          -6.46          52.02          69.88          46.41
    0.8778              -18.97          9.443          37.77          58.72         -7.913         -6.708          36.14          -6.45           52.0          69.91          46.43
     0.924              -18.97          9.445          37.78          58.71         -7.904         -6.698          36.06         -6.438          51.97          69.95          46.46
